# xmcd CD database file
#
# Track frame offsets:
#	150
#	21825
#	43357
#
# Disc length: 848 seconds
#
# Revision: 0
# Processed by: cddbd v1.5.1PL0 Copyright (c) Steve Scherf et al.
# Submitted via: CDex 1.51
#
DISCID=22034e03
DTITLE=FLIP FLAP - キミを連れて　風を感じて
DYEAR=2001
DGENRE=J-pop
TTITLE0=キミを連れて　風を感じて
TTITLE1=月になりたい
TTITLE2=まだまだ何でさみしいの？
EXTD=YEAR: 2001
EXTT0=
EXTT1=
EXTT2=
PLAYORDER=
